Coordinates
version=1
nRows=19
nColumns=63
inDegrees=yes

Units are S.I. units (second, meters, Newtons, ...)
If the header above contains a line with 'inDegrees', this indicates whether rotational values are in degrees (yes) or radians (no).

endheader
time	pelvis_tilt	pelvis_list	pelvis_rotation	pelvis_tx	pelvis_ty	pelvis_tz	hip_flexion_r	hip_adduction_r	hip_rotation_r	knee_angle_r	knee_angle_r_beta	ankle_angle_r	subtalar_angle_r	mtp_angle_r	hip_flexion_l	hip_adduction_l	hip_rotation_l	knee_angle_l	knee_angle_l_beta	ankle_angle_l	subtalar_angle_l	mtp_angle_l	L5_S1_Flex_Ext	L5_S1_Lat_Bending	L5_S1_axial_rotation	L4_L5_Flex_Ext	L4_L5_Lat_Bending	L4_L5_axial_rotation	L3_L4_Flex_Ext	L3_L4_Lat_Bending	L3_L4_axial_rotation	L2_L3_Flex_Ext	L2_L3_Lat_Bending	L2_L3_axial_rotation	L1_L2_Flex_Ext	L1_L2_Lat_Bending	L1_L2_axial_rotation	L1_T12_Flex_Ext	L1_T12_Lat_Bending	L1_T12_axial_rotation	Abs_r3	Abs_r2	Abs_r1	Abs_t1	Abs_t2	neck_flexion	neck_bending	neck_rotation	arm_flex_r	arm_add_r	arm_rot_r	elbow_flex_r	pro_sup_r	wrist_flex_r	wrist_dev_r	arm_flex_l	arm_add_l	arm_rot_l	elbow_flex_l	pro_sup_l	wrist_flex_l	wrist_dev_l
1.627119	-1.526576	-10.813869	96.512557	0.217055	0.913463	0.381489	22.492811	-8.606186	-8.673378	29.294752	0.511290	35.229871	-0.502466	0.000000	17.769118	5.790694	-11.253799	16.574634	0.289282	25.077211	-2.591452	0.000000	0.345458	-0.379393	0.261465	0.641550	-0.504593	0.277806	0.567553	-0.922457	0.277806	0.394824	-0.922457	0.228782	0.320792	-0.773659	0.212440	0.197395	-0.587680	0.196099	2.467573	-4.291774	1.454189	0.000000	0.000000	23.783167	2.765128	-23.063985	83.110533	-5.717272	11.967031	43.376724	85.803806	-6.183534	-10.286994	27.071322	-8.948071	22.325004	138.384122	28.358419	5.439149	10.062664
1.644068	-1.471562	-11.021644	96.390083	0.217389	0.912241	0.381232	22.930722	-8.530759	-8.385458	29.724861	0.518797	35.361378	-0.755072	0.000000	18.281200	5.599475	-11.472251	17.332405	0.302508	25.458742	-2.614355	0.000000	0.349076	-0.359423	0.160850	0.648269	-0.478032	0.170903	0.573497	-0.873901	0.170903	0.398959	-0.873901	0.140744	0.324152	-0.732935	0.130691	0.199462	-0.556746	0.120638	2.493416	-4.065862	0.894600	0.000000	0.000000	24.509028	2.495811	-23.287660	81.724490	-5.090142	11.990357	46.495130	85.719686	-6.530522	-9.899139	28.202080	-8.665207	22.856890	139.426629	29.104838	6.301415	10.551277
1.661017	-1.292579	-11.158415	96.244353	0.217611	0.910761	0.381080	23.349927	-8.349199	-8.181117	30.240313	0.527793	35.560937	-0.911984	0.000000	18.875110	5.268118	-11.564595	18.372062	0.320653	26.003344	-2.829096	0.000000	0.349969	-0.312468	0.059653	0.649927	-0.415582	0.063381	0.574964	-0.759734	0.063381	0.399979	-0.759734	0.052196	0.324981	-0.637184	0.048468	0.199972	-0.484012	0.044740	2.499791	-3.534696	0.331772	0.000000	0.000000	25.009654	2.090248	-23.152932	78.666951	-4.316034	11.571024	52.400045	85.771728	-6.559450	-8.456652	30.933047	-8.780232	22.806349	138.884155	31.902157	6.946485	10.157697
1.677966	-0.985381	-11.207978	96.087998	0.217690	0.909038	0.381099	23.729103	-8.067434	-8.102568	30.835822	0.538187	35.822942	-0.963091	0.000000	19.541100	4.795992	-11.534312	19.683202	0.343537	26.755279	-3.124847	0.000000	0.345421	-0.238723	-0.042617	0.641481	-0.317502	-0.045280	0.567492	-0.580431	-0.045280	0.394781	-0.580431	-0.037290	0.320758	-0.486804	-0.034626	0.197373	-0.369782	-0.031963	2.467306	-2.700483	-0.237021	0.000000	0.000000	25.289700	1.586018	-22.663150	74.167213	-3.471745	10.743146	60.652514	85.940653	-6.191013	-5.972673	35.351133	-9.253738	22.606279	136.547114	36.895423	7.050865	8.973834
1.694915	-0.469130	-11.176905	95.927996	0.217501	0.907148	0.381238	24.022775	-7.604437	-8.194144	31.400782	0.548047	36.089094	-0.868059	0.000000	20.282602	4.134509	-11.285987	21.230983	0.370551	27.716112	-3.496400	0.000000	0.333613	-0.125638	-0.150033	0.619553	-0.167098	-0.159411	0.548093	-0.305475	-0.159411	0.381287	-0.305475	-0.131279	0.309793	-0.256200	-0.121902	0.190627	-0.194613	-0.112525	2.382967	-1.421238	-0.834441	0.000000	0.000000	25.460531	0.927994	-21.699366	68.552067	-2.670434	9.597469	70.695328	86.226160	-5.368932	-2.516448	41.254360	-10.018067	21.951142	132.282974	44.711863	6.933835	7.436468
1.711864	0.251229	-11.096236	95.770912	0.216959	0.905086	0.381434	24.254655	-6.983089	-8.485851	31.931460	0.557309	36.360580	-0.593987	0.000000	21.114653	3.300214	-10.840264	22.971299	0.400925	28.884214	-3.851462	0.000000	0.317618	0.027891	-0.279649	0.589848	0.037095	-0.297127	0.521815	0.067815	-0.297127	0.363006	0.067815	-0.244693	0.294940	0.056876	-0.227215	0.181487	0.043204	-0.209737	2.268714	0.315512	-1.555323	0.000000	0.000000	25.527767	0.140506	-20.084595	62.216829	-2.000506	8.423251	81.711433	86.620414	-4.182558	1.357239	48.535593	-10.946911	22.441879	126.027756	54.038202	6.137342	5.578231
1.728814	1.209198	-11.003923	95.628032	0.215982	0.902940	0.381575	24.418285	-6.171418	-9.014894	32.344420	0.564517	36.603684	-0.103125	0.000000	22.046984	2.278616	-10.149610	24.849834	0.433711	30.235252	-4.174689	0.000000	0.302277	0.228519	-0.439482	0.561359	0.303931	-0.466950	0.496611	0.555622	-0.466950	0.345473	0.555622	-0.384547	0.280695	0.465997	-0.357079	0.172721	0.353976	-0.329612	2.159136	2.585056	-2.444267	0.000000	0.000000	25.507493	-0.830583	-17.632306	55.583101	-1.545135	7.574401	92.894362	87.110687	-2.962457	5.349305	56.705057	-11.960030	24.192705	117.980227	64.694220	4.881027	3.541802
1.745763	2.358321	-10.909036	95.511707	0.214609	0.900730	0.381656	24.516633	-5.222602	-9.790329	32.639248	0.569662	36.850148	0.643767	0.000000	23.054497	1.136043	-9.169302	26.796748	0.467691	31.702768	-4.498101	0.000000	0.287770	0.465603	-0.620327	0.534419	0.619251	-0.659097	0.472778	1.132066	-0.659097	0.328893	1.132066	-0.542786	0.267224	0.949457	-0.504015	0.164432	0.721218	-0.465245	2.055516	5.266989	-3.450070	0.000000	0.000000	25.404177	-1.977076	-14.588392	49.052349	-1.356046	7.309330	103.500759	87.663955	-1.789979	9.298680	65.554254	-12.846575	28.298046	108.165815	74.647592	3.189380	1.142629
1.762712	3.597503	-10.816653	95.361366	0.213165	0.898480	0.381681	24.573101	-4.187952	-10.660400	32.842647	0.573212	37.140013	1.564677	0.000000	24.086681	-0.085587	-8.064994	28.746195	0.501716	33.249798	-4.688606	0.000000	0.274702	0.717097	-0.778973	0.510150	0.953738	-0.827658	0.451309	1.743548	-0.827658	0.313957	1.743548	-0.681601	0.255089	1.462303	-0.632915	0.156965	1.110783	-0.584229	1.962172	8.111939	-4.332412	0.000000	0.000000	25.163832	-3.261255	-11.482855	42.888577	-1.493850	7.736032	113.047975	88.216683	-0.562439	13.183488	74.645042	-13.545506	33.851122	97.082950	81.036861	1.589384	-0.866736
1.779661	4.831131	-10.720977	95.147236	0.211867	0.896278	0.381643	24.587947	-3.138552	-11.540686	32.973743	0.575500	37.500133	2.622978	0.000000	25.077964	-1.305028	-6.885109	30.609507	0.534237	34.803028	-4.783535	0.000000	0.263880	0.963855	-0.882391	0.490051	1.281927	-0.937541	0.433528	2.343517	-0.937541	0.301588	2.343517	-0.772092	0.245039	1.965493	-0.716943	0.150781	1.493011	-0.661793	1.884868	10.903319	-4.907595	0.000000	0.000000	24.677503	-4.664942	-8.758085	37.278989	-1.989853	8.870676	121.298797	88.659205	0.709203	16.988173	83.492199	-14.035077	39.817665	85.231698	85.612385	-0.137526	-2.338337
1.796610	5.989375	-10.619149	94.836670	0.210888	0.894253	0.381513	24.554830	-2.118419	-12.359891	33.027560	0.576440	37.925650	3.787989	0.000000	25.965231	-2.479497	-5.751696	32.300186	0.563745	36.324711	-4.737276	0.000000	0.256771	1.193318	-0.924191	0.476849	1.587113	-0.981953	0.421849	2.901433	-0.981953	0.293464	2.901433	-0.808667	0.238438	2.433414	-0.750905	0.146719	1.848449	-0.693143	1.834089	13.499049	-5.140072	0.000000	0.000000	23.825328	-6.129191	-6.549508	32.389609	-2.756154	10.544092	128.109553	88.876445	1.994905	20.624034	91.551278	-14.354939	45.482348	73.430790	88.729694	-1.883626	-3.395822
1.813559	7.015193	-10.494776	94.480426	0.210246	0.892559	0.381271	24.436491	-1.192086	-13.145187	32.984267	0.575684	38.404214	5.037266	0.000000	26.680265	-3.539431	-4.671120	33.719149	0.588510	37.763457	-4.566128	0.000000	0.253440	1.394127	-0.923053	0.470664	1.854189	-0.980744	0.416377	3.389681	-0.980744	0.289657	3.389681	-0.807671	0.235345	2.842905	-0.749981	0.144816	2.159503	-0.692290	1.810298	15.770648	-5.133744	0.000000	0.000000	22.533159	-7.529725	-4.969759	28.367138	-3.628542	12.372203	133.472126	88.820946	3.364435	24.132697	98.430187	-14.492574	50.562284	62.477679	90.174781	-3.866557	-4.325102
1.830508	7.856947	-10.337726	94.052284	0.210119	0.891314	0.380944	24.230925	-0.378968	-13.805748	32.842447	0.573209	38.891215	6.284156	0.000000	27.170538	-4.485621	-3.915434	34.813891	0.607617	39.140264	-4.028258	0.000000	0.252686	1.556909	-0.893531	0.469263	2.070689	-0.949377	0.415137	3.785469	-0.949377	0.288794	3.785469	-0.781840	0.234644	3.174849	-0.725994	0.144385	2.411652	-0.670148	1.804909	17.612066	-4.969553	0.000000	0.000000	20.836398	-8.711143	-3.922020	25.292505	-4.406337	13.853155	137.468172	88.783428	4.746604	27.276456	103.848976	-14.489664	54.752043	53.151885	89.723020	-5.569867	-5.063744
1.847458	8.472815	-10.142480	93.561230	0.210566	0.890598	0.380545	23.937184	0.275452	-14.344611	32.609883	0.569150	39.356985	7.532889	0.000000	27.392725	-5.263866	-3.436267	35.509206	0.619753	40.367612	-3.302321	0.000000	0.252940	1.674024	-0.840532	0.469735	2.226452	-0.893065	0.415556	4.070222	-0.893065	0.289085	4.070222	-0.735465	0.234880	3.413670	-0.682932	0.144530	2.593063	-0.630399	1.806727	18.936895	-4.674786	0.000000	0.000000	18.887019	-9.521473	-3.340685	23.265471	-4.979724	14.894936	140.205328	88.615676	6.126473	29.684908	107.649093	-14.330260	57.920778	46.018386	87.237008	-7.010395	-5.560357
1.864407	8.795352	-9.914559	93.021911	0.211742	0.890462	0.380065	23.569862	0.724133	-14.675326	32.303502	0.563802	39.769950	8.642148	0.000000	27.322942	-5.826498	-3.372862	35.765717	0.624230	41.393525	-2.287233	0.000000	0.250629	1.731638	-0.754804	0.465444	2.303079	-0.801980	0.411759	4.210305	-0.801980	0.286444	4.210305	-0.660454	0.232735	3.531156	-0.613278	0.143210	2.682307	-0.566103	1.790221	19.588637	-4.197995	0.000000	0.000000	16.904060	-9.866246	-3.455221	22.305318	-5.315486	15.175907	141.936396	88.575720	7.403964	31.573396	109.775166	-14.004081	59.925427	41.406814	84.042636	-7.912696	-6.117954
1.881356	8.805201	-9.664197	92.423305	0.213674	0.890923	0.379510	23.152533	0.946513	-14.783379	31.935982	0.557388	40.092441	9.608342	0.000000	26.958840	-6.138849	-3.690872	35.553487	0.620525	42.126907	-1.166534	0.000000	0.246555	1.727426	-0.626629	0.457876	2.297476	-0.665793	0.405064	4.200062	-0.665793	0.281787	4.200062	-0.548300	0.228951	3.522566	-0.509136	0.140881	2.675782	-0.469972	1.761115	19.540983	-3.485122	0.000000	0.000000	15.035243	-9.719845	-4.216924	22.520761	-5.419274	14.774963	142.524462	88.558126	8.348670	32.612706	110.120950	-13.471346	60.386274	39.534915	82.995130	-8.549816	-6.982964
1.898305	8.514685	-9.377217	91.809909	0.216307	0.892005	0.378916	22.671091	0.951109	-14.655254	31.509482	0.549944	40.289754	10.339042	0.000000	26.296360	-6.196333	-4.352459	34.888898	0.608926	42.504086	-0.025498	0.000000	0.238378	1.664928	-0.464518	0.442692	2.214354	-0.493550	0.391632	4.048105	-0.493550	0.272442	4.048105	-0.406453	0.221358	3.395121	-0.377421	0.136209	2.578973	-0.348388	1.702712	18.833995	-2.583509	0.000000	0.000000	13.353392	-9.145600	-5.476068	23.979549	-5.302209	13.823373	141.757594	88.573225	8.573114	32.625120	108.646535	-12.745857	59.205909	40.474921	82.949813	-8.874278	-7.897758
1.915254	7.915210	-9.057198	91.174498	0.219653	0.893672	0.378331	22.150619	0.731517	-14.256778	31.054532	0.542004	40.350443	10.803790	0.000000	25.355019	-5.983401	-5.336072	33.806107	0.590028	42.463914	1.012557	0.000000	0.225852	1.544167	-0.272672	0.419430	2.053743	-0.289714	0.371053	3.754489	-0.289714	0.258127	3.754489	-0.238588	0.209726	3.148866	-0.221546	0.129052	2.391915	-0.204504	1.613240	17.467931	-1.516518	0.000000	0.000000	11.906194	-8.175084	-7.162697	26.657012	-4.950704	12.401113	139.379584	88.607297	8.141233	31.349729	105.439925	-11.884584	56.388078	44.080788	83.263257	-8.811386	-8.926972
1.932203	7.033923	-8.713350	90.531035	0.223608	0.895830	0.377773	21.611671	0.306592	-13.584656	30.592201	0.533935	40.286549	10.973644	0.000000	24.172571	-5.508078	-6.572095	32.358222	0.564758	41.982714	1.824620	0.000000	0.208792	1.370492	-0.057475	0.387747	1.822755	-0.061067	0.343024	3.332215	-0.061067	0.238628	3.332215	-0.050291	0.193884	2.794708	-0.046698	0.119304	2.122893	-0.043106	1.491378	15.503284	-0.319658	0.000000	0.000000	10.726717	-6.895422	-9.245787	30.472548	-4.415298	10.753895	135.270417	88.649926	7.066624	28.831921	100.687769	-10.924706	52.026985	50.079395	83.813681	-8.370488	-10.100463
